<?xml version="1.0" standalone="no"?>
<!DOCTYPE svg PUBLIC "-//W3C//DTD SVG 20010904//EN"
 "http://www.w3.org/TR/2001/REC-SVG-20010904/DTD/svg10.dtd">
<svg version="1.0" xmlns="http://www.w3.org/2000/svg"
 width="1969.000000pt" height="809.000000pt" viewBox="0 0 1969.000000 809.000000"
 preserveAspectRatio="xMidYMid meet">
<metadata>
Created by potrace 1.15, written by Peter Selinger 2001-2017
</metadata>
<g transform="translate(0.000000,809.000000) scale(0.100000,-0.100000)"
fill="#000000" stroke="none">
<path d="M3593 5869 c15 -9 17 -30 17 -218 l0 -208 -137 -6 c-75 -4 -164 -7
-199 -7 -35 0 -66 -5 -69 -11 -5 -7 57 -9 203 -7 190 3 212 5 231 22 20 18 21
29 21 208 0 187 0 189 -25 213 -13 14 -32 25 -42 25 -17 -1 -17 -1 0 -11z"/>
<path d="M4481 5649 c-173 -19 -488 -107 -622 -175 -142 -71 -324 -208 -423
-316 -81 -88 -205 -272 -248 -365 -46 -103 -104 -287 -130 -414 -19 -96 -23
-145 -23 -304 1 -256 31 -411 126 -650 41 -103 169 -307 248 -395 l40 -45 1
1063 c0 1143 -2 1104 49 1132 12 6 125 10 294 10 258 0 276 -1 299 -20 26 -20
55 -76 45 -86 -3 -3 -13 10 -22 29 -28 60 -39 62 -332 62 l-265 0 -29 -33 -29
-32 0 -1007 c0 -553 2 -1004 3 -1002 2 2 151 220 330 484 455 671 599 876 631
899 26 20 43 21 276 24 201 2 255 0 284 -12 29 -12 57 -47 160 -203 l126 -188
0 340 c0 187 3 419 7 515 6 174 7 175 34 202 l27 28 254 0 253 1 -59 54 c-75
69 -214 168 -313 222 -91 50 -310 125 -445 152 -187 39 -366 48 -547 30z"/>
<path d="M5970 4135 l0 -890 42 65 c73 114 158 357 194 555 28 152 25 423 -5
574 -40 202 -113 401 -196 531 l-35 55 0 -890z"/>
<path d="M4430 3393 c-287 -435 -308 -466 -344 -486 -14 -8 -100 -14 -271 -17
l-250 -5 90 -61 c139 -94 188 -119 346 -173 416 -141 774 -142 1189 -4 160 53
238 91 362 175 l93 63 -145 5 c-111 4 -152 9 -170 21 -14 9 -158 215 -320 458
-162 242 -297 441 -300 441 -3 0 -129 -188 -280 -417z"/>
<path d="M3610 2445 l0 -215 -122 -1 c-68 -1 -168 -5 -223 -9 -83 -5 -61 -7
128 -8 215 -2 228 -1 247 18 19 19 20 33 20 208 0 170 -2 191 -18 205 -10 10
-22 17 -25 17 -4 0 -7 -97 -7 -215z"/>
</g>
</svg>
